<mxfile host="Electron" modified="2024-01-24T14:21:46.557Z" agent="Mozilla/5.0 (Macintosh; Intel Mac OS X 10_15_7) AppleWebKit/537.36 (KHTML, like Gecko) draw.io/21.6.1 Chrome/112.0.5615.204 Electron/24.6.1 Safari/537.36" etag="ujTDMbRszdHf4OrhA7_w" version="21.6.1" type="device">
  <diagram name="Page-1" id="AOhYeowQbjSqdwz0Nb28">
    <mxGraphModel dx="954" dy="608" grid="1" gridSize="10" guides="1" tooltips="1" connect="1" arrows="1" fold="1" page="1" pageScale="1" pageWidth="850" pageHeight="1100" math="0" shadow="0">
      <root>
        <mxCell id="0" />
        <mxCell id="1" parent="0" />
        <mxCell id="f8dmjriIAunEBOiy9uOY-1" value="" style="rounded=1;whiteSpace=wrap;html=1;" vertex="1" parent="1">
          <mxGeometry x="100" y="110" width="230" height="120" as="geometry" />
        </mxCell>
        <mxCell id="f8dmjriIAunEBOiy9uOY-2" value="Compute Container" style="rounded=0;whiteSpace=wrap;html=1;" vertex="1" parent="1">
          <mxGeometry x="100" y="110" width="120" height="30" as="geometry" />
        </mxCell>
        <mxCell id="f8dmjriIAunEBOiy9uOY-4" value="Individual" style="rounded=1;whiteSpace=wrap;html=1;" vertex="1" parent="1">
          <mxGeometry x="125" y="150" width="70" height="30" as="geometry" />
        </mxCell>
        <mxCell id="f8dmjriIAunEBOiy9uOY-5" value="Individual" style="rounded=1;whiteSpace=wrap;html=1;" vertex="1" parent="1">
          <mxGeometry x="210" y="150" width="70" height="30" as="geometry" />
        </mxCell>
        <mxCell id="f8dmjriIAunEBOiy9uOY-6" value="Individual" style="rounded=1;whiteSpace=wrap;html=1;" vertex="1" parent="1">
          <mxGeometry x="125" y="190" width="70" height="30" as="geometry" />
        </mxCell>
        <mxCell id="f8dmjriIAunEBOiy9uOY-7" value="" style="rounded=1;whiteSpace=wrap;html=1;" vertex="1" parent="1">
          <mxGeometry x="100" y="260" width="230" height="120" as="geometry" />
        </mxCell>
        <mxCell id="f8dmjriIAunEBOiy9uOY-8" value="Compute Container" style="rounded=0;whiteSpace=wrap;html=1;" vertex="1" parent="1">
          <mxGeometry x="100" y="260" width="120" height="30" as="geometry" />
        </mxCell>
        <mxCell id="f8dmjriIAunEBOiy9uOY-9" value="Individual" style="rounded=1;whiteSpace=wrap;html=1;" vertex="1" parent="1">
          <mxGeometry x="125" y="300" width="70" height="30" as="geometry" />
        </mxCell>
        <mxCell id="f8dmjriIAunEBOiy9uOY-10" value="Individual" style="rounded=1;whiteSpace=wrap;html=1;" vertex="1" parent="1">
          <mxGeometry x="210" y="300" width="70" height="30" as="geometry" />
        </mxCell>
        <mxCell id="f8dmjriIAunEBOiy9uOY-11" value="Individual" style="rounded=1;whiteSpace=wrap;html=1;" vertex="1" parent="1">
          <mxGeometry x="125" y="340" width="70" height="30" as="geometry" />
        </mxCell>
        <mxCell id="f8dmjriIAunEBOiy9uOY-12" value="" style="rounded=1;whiteSpace=wrap;html=1;" vertex="1" parent="1">
          <mxGeometry x="100" y="410" width="230" height="120" as="geometry" />
        </mxCell>
        <mxCell id="f8dmjriIAunEBOiy9uOY-13" value="Compute Container" style="rounded=0;whiteSpace=wrap;html=1;" vertex="1" parent="1">
          <mxGeometry x="100" y="410" width="120" height="30" as="geometry" />
        </mxCell>
        <mxCell id="f8dmjriIAunEBOiy9uOY-14" value="Individual" style="rounded=1;whiteSpace=wrap;html=1;" vertex="1" parent="1">
          <mxGeometry x="125" y="450" width="70" height="30" as="geometry" />
        </mxCell>
        <mxCell id="f8dmjriIAunEBOiy9uOY-15" value="Individual" style="rounded=1;whiteSpace=wrap;html=1;" vertex="1" parent="1">
          <mxGeometry x="210" y="450" width="70" height="30" as="geometry" />
        </mxCell>
        <mxCell id="f8dmjriIAunEBOiy9uOY-16" value="Individual" style="rounded=1;whiteSpace=wrap;html=1;" vertex="1" parent="1">
          <mxGeometry x="125" y="490" width="70" height="30" as="geometry" />
        </mxCell>
        <mxCell id="f8dmjriIAunEBOiy9uOY-27" style="edgeStyle=orthogonalEdgeStyle;rounded=0;orthogonalLoop=1;jettySize=auto;html=1;exitX=0;exitY=0.5;exitDx=0;exitDy=0;entryX=1;entryY=0.5;entryDx=0;entryDy=0;" edge="1" parent="1" source="f8dmjriIAunEBOiy9uOY-18" target="f8dmjriIAunEBOiy9uOY-20">
          <mxGeometry relative="1" as="geometry" />
        </mxCell>
        <mxCell id="f8dmjriIAunEBOiy9uOY-28" style="edgeStyle=orthogonalEdgeStyle;rounded=0;orthogonalLoop=1;jettySize=auto;html=1;exitX=0;exitY=0.5;exitDx=0;exitDy=0;" edge="1" parent="1" source="f8dmjriIAunEBOiy9uOY-18" target="f8dmjriIAunEBOiy9uOY-21">
          <mxGeometry relative="1" as="geometry" />
        </mxCell>
        <mxCell id="f8dmjriIAunEBOiy9uOY-29" style="edgeStyle=orthogonalEdgeStyle;rounded=0;orthogonalLoop=1;jettySize=auto;html=1;exitX=0;exitY=0.5;exitDx=0;exitDy=0;entryX=1;entryY=0.5;entryDx=0;entryDy=0;" edge="1" parent="1" source="f8dmjriIAunEBOiy9uOY-18" target="f8dmjriIAunEBOiy9uOY-22">
          <mxGeometry relative="1" as="geometry" />
        </mxCell>
        <mxCell id="f8dmjriIAunEBOiy9uOY-18" value="" style="rounded=1;whiteSpace=wrap;html=1;" vertex="1" parent="1">
          <mxGeometry x="480" y="295" width="230" height="120" as="geometry" />
        </mxCell>
        <mxCell id="f8dmjriIAunEBOiy9uOY-19" value="Exchanger" style="rounded=0;whiteSpace=wrap;html=1;" vertex="1" parent="1">
          <mxGeometry x="480" y="295" width="120" height="30" as="geometry" />
        </mxCell>
        <mxCell id="f8dmjriIAunEBOiy9uOY-23" style="edgeStyle=orthogonalEdgeStyle;rounded=0;orthogonalLoop=1;jettySize=auto;html=1;exitX=1;exitY=0.5;exitDx=0;exitDy=0;entryX=0;entryY=0.5;entryDx=0;entryDy=0;" edge="1" parent="1" source="f8dmjriIAunEBOiy9uOY-20" target="f8dmjriIAunEBOiy9uOY-18">
          <mxGeometry relative="1" as="geometry" />
        </mxCell>
        <mxCell id="f8dmjriIAunEBOiy9uOY-20" value="State" style="rounded=1;whiteSpace=wrap;html=1;" vertex="1" parent="1">
          <mxGeometry x="240" y="190" width="70" height="30" as="geometry" />
        </mxCell>
        <mxCell id="f8dmjriIAunEBOiy9uOY-25" style="edgeStyle=orthogonalEdgeStyle;rounded=0;orthogonalLoop=1;jettySize=auto;html=1;exitX=1;exitY=0.5;exitDx=0;exitDy=0;entryX=0;entryY=0.5;entryDx=0;entryDy=0;" edge="1" parent="1" source="f8dmjriIAunEBOiy9uOY-21" target="f8dmjriIAunEBOiy9uOY-18">
          <mxGeometry relative="1" as="geometry" />
        </mxCell>
        <mxCell id="f8dmjriIAunEBOiy9uOY-21" value="State" style="rounded=1;whiteSpace=wrap;html=1;" vertex="1" parent="1">
          <mxGeometry x="240" y="340" width="70" height="30" as="geometry" />
        </mxCell>
        <mxCell id="f8dmjriIAunEBOiy9uOY-26" style="edgeStyle=orthogonalEdgeStyle;rounded=0;orthogonalLoop=1;jettySize=auto;html=1;exitX=1;exitY=0.5;exitDx=0;exitDy=0;entryX=0;entryY=0.5;entryDx=0;entryDy=0;" edge="1" parent="1" source="f8dmjriIAunEBOiy9uOY-22" target="f8dmjriIAunEBOiy9uOY-18">
          <mxGeometry relative="1" as="geometry" />
        </mxCell>
        <mxCell id="f8dmjriIAunEBOiy9uOY-22" value="State" style="rounded=1;whiteSpace=wrap;html=1;" vertex="1" parent="1">
          <mxGeometry x="240" y="490" width="70" height="30" as="geometry" />
        </mxCell>
        <mxCell id="f8dmjriIAunEBOiy9uOY-30" value="State" style="rounded=1;whiteSpace=wrap;html=1;" vertex="1" parent="1">
          <mxGeometry x="510" y="330" width="70" height="30" as="geometry" />
        </mxCell>
        <mxCell id="f8dmjriIAunEBOiy9uOY-31" value="State" style="rounded=1;whiteSpace=wrap;html=1;" vertex="1" parent="1">
          <mxGeometry x="510" y="370" width="70" height="30" as="geometry" />
        </mxCell>
        <mxCell id="f8dmjriIAunEBOiy9uOY-32" value="State" style="rounded=1;whiteSpace=wrap;html=1;" vertex="1" parent="1">
          <mxGeometry x="600" y="330" width="70" height="30" as="geometry" />
        </mxCell>
      </root>
    </mxGraphModel>
  </diagram>
</mxfile>
